<svg xmlns="http://www.w3.org/2000/svg" viewBox="0 0 1208.9 964.4">
  <path fill="#5C7F00" d="M846.1 360c0-51.5-23.6-107.2-63.1-149.1-45.6-48.3-108.9-74.9-178.4-75h-.2-.1c-157.6.2-241.5 130.2-241.5 224 0 63.8 26.5 109.4 54.6 157.7 30.3 52 61.6 105.8 61.6 188.9 0 61.8 40.3 69.4 75.3 69.4H680c11.7 0 21.2 9.5 21.2 21.2s-9.5 21.2-21.2 21.2H561.7c-25.6 0-46.5 20.8-46.5 46.5 0 25.6 20.8 46.5 46.5 46.5h46.8c5.3 15.2 19.7 26.2 36.7 26.2 21.4 0 38.9-17.4 38.9-38.9 0-21.4-17.4-38.9-38.9-38.9-17 0-31.5 11-36.7 26.2h-46.8c-11.7 0-21.2-9.5-21.2-21.2s9.5-21.2 21.2-21.2H680c25.6 0 46.5-20.8 46.5-46.5 0-25.6-20.8-46.5-46.5-46.5h-20.4c-15.4-1-24.8-3.9-30.3-9.4-12.8-12.9-12.7-48.9-12.4-108.5 0-9.7.1-20.1.1-31.3V456.9c15.2-5.3 26.2-19.7 26.2-36.7 0-21.4-17.4-38.9-38.9-38.9-21.4 0-38.9 17.4-38.9 38.9 0 17 11 31.5 26.2 36.7v144.6c0 11.1 0 21.5-.1 31.2-.3 58.6-.4 93 11.1 114.6-15.5-2.5-25.6-6.5-31.2-12.2-8.6-8.6-9-23.4-8.9-50.9v-7.6c0-98.9-12-143.7-21.6-179.7-6.5-24.4-11.7-43.8-11.7-74 0-84.4 47-97 75-97s75 12.6 75 97c0 30.3-5.5 51.2-12.5 77.7-.4 1.3-.7 2.7-1.1 4.1-19.7 1.8-35.2 18.5-35.2 38.7 0 21.4 17.4 38.9 38.9 38.9s38.9-17.4 38.9-38.9c0-13.7-7.2-25.8-17.9-32.7.3-1.2.6-2.4 1-3.6 7.1-27.2 13.3-50.6 13.3-84.1 0-113.4-76.8-122.3-100.3-122.3S504 309.5 504 423c0 33.6 5.8 55.3 12.5 80.5 9.2 34.6 20.7 77.7 20.7 173.2v7.5c-.1 27.9-.1 50.3 14.2 66.6H544c-25.8-1.6-36.7-10.2-39.2-32h.2V678c0-66.1-13.1-124.5-24.7-176-9.9-44.2-19.3-85.9-19.3-126.4 0-40.6 14-135.1 143.3-135.1S747.7 335 747.7 375.6c0 5.9-.2 12.1-.6 18.4-17.7 3.6-31.1 19.3-31.1 38.1 0 21.4 17.4 38.9 38.9 38.9s38.9-17.4 38.9-38.9c0-15.2-8.8-28.4-21.6-34.8.5-7.5.8-14.7.8-21.7 0-118.2-87.1-160.3-168.6-160.3s-168.6 42.1-168.6 160.3c0 43.2 9.7 86.3 19.9 131.9 3.3 14.7 6.6 29.5 9.7 44.5-8.5-16.6-17.5-32.2-26.2-47.1-26.3-45.2-51.2-87.9-51.2-145 0-83.3 75.2-198.7 216.3-198.7 141.2.1 216.3 115.5 216.3 198.7 0 57.1-24.9 102.1-51.3 149.8C751.6 542 733.4 575 720.7 614c-20.1 1.5-36 18.3-36 38.7 0 21.4 17.4 38.9 38.9 38.9 21.4 0 38.9-17.4 38.9-38.9 0-13.4-6.8-25.3-17.2-32.3 12-36.3 29.4-67.8 46.3-98.4 28-50.5 54.5-98.3 54.5-162zM645.2 882.5c8.9 0 16.1 7.2 16.1 16.1s-7.2 16.1-16.1 16.1c-8.9 0-16.1-7.2-16.1-16.1s7.2-16.1 16.1-16.1zm-56.9-462.3c0-8.9 7.2-16.1 16.1-16.1 8.9 0 16.1 7.2 16.1 16.1 0 8.9-7.2 16.1-16.1 16.1-8.9 0-16.1-7.2-16.1-16.1zm97.4 123.2c0 8.9-7.2 16.1-16.1 16.1-8.9 0-16.1-7.2-16.1-16.1 0-8.9 7.2-16.1 16.1-16.1 8.9-.1 16.1 7.2 16.1 16.1zM771 432.1c0 8.9-7.2 16.1-16.1 16.1-8.9 0-16.1-7.2-16.1-16.1 0-8.9 7.2-16.1 16.1-16.1 8.9 0 16.1 7.2 16.1 16.1zm-47.4 236.7c-8.9 0-16.1-7.2-16.1-16.1 0-8.9 7.2-16.1 16.1-16.1 8.9 0 16.1 7.2 16.1 16.1 0 8.9-7.2 16.1-16.1 16.1z"/>
  <path fill="#7D9600" d="M604.6 105c-7 0-12.6-5.7-12.6-12.6V40.9c0-7 5.7-12.6 12.6-12.6 7 0 12.6 5.7 12.6 12.6v51.5c0 7-5.6 12.6-12.6 12.6zm-77.3 9.2c6.7-1.8 10.7-8.8 8.9-15.5l-11.4-42.1c-1.8-6.7-8.8-10.7-15.5-8.9-6.7 1.8-10.7 8.8-8.9 15.5l11.4 42.1c1.5 5.6 6.6 9.4 12.2 9.4 1.1 0 2.2-.2 3.3-.5zm-77.1 35.3c-4.3 0-8.5-2.2-10.8-6.1l-22.5-37.3c-3.6-6-1.7-13.7 4.3-17.4 6-3.6 13.8-1.7 17.4 4.3l22.5 37.3c3.6 6 1.7 13.7-4.3 17.4-2.1 1.2-4.4 1.8-6.6 1.8zM387 202.1c-3 0-6-1.1-8.4-3.2l-28.3-25.4c-5.2-4.7-5.6-12.7-1-17.9 4.7-5.2 12.7-5.6 17.9-1l28.3 25.4c5.2 4.7 5.6 12.7 1 17.9-2.6 2.8-6.1 4.2-9.5 4.2zm-43.1 70.3c-1.7 0-3.4-.3-5-1l-31-13.4c-6.4-2.8-9.4-10.2-6.6-16.6 2.8-6.4 10.2-9.4 16.6-6.6l31 13.4c6.4 2.8 9.4 10.2 6.6 16.6-2.1 4.7-6.7 7.6-11.6 7.6zm-18.2 87h-30c-7 0-12.6-5.7-12.6-12.6 0-7 5.7-12.6 12.6-12.6h30c7 0 12.6 5.7 12.6 12.6 0 6.9-5.7 12.6-12.6 12.6zm-14.5 84c-5.6 0-10.8-3.8-12.2-9.5-1.7-6.8 2.4-13.7 9.1-15.4l26-6.6c6.8-1.7 13.6 2.4 15.4 9.1 1.7 6.8-2.4 13.7-9.1 15.4l-26 6.6c-1.1.2-2.2.4-3.2.4zm35.3 70.1c-4.9 0-9.6-2.9-11.7-7.8-2.7-6.4.4-13.8 6.8-16.5l18.6-7.8c6.4-2.7 13.8.4 16.5 6.8 2.7 6.4-.4 13.8-6.8 16.5l-18.6 7.8c-1.5.7-3.1 1-4.8 1zm39 56.8c-4.5 0-8.8-2.4-11.1-6.6-3.4-6.1-1.1-13.8 5-17.2l9.9-5.4c6.1-3.4 13.8-1.1 17.2 5 3.4 6.1 1.1 13.8-5 17.2l-9.9 5.4c-1.9 1.1-4 1.6-6.1 1.6zm299.4-455.6c-1.1 0-2.2-.1-3.3-.4-6.7-1.8-10.7-8.8-8.9-15.5L684 56.7c1.8-6.7 8.8-10.7 15.5-8.9 6.7 1.8 10.7 8.8 8.9 15.5L697 105.4c-1.4 5.6-6.5 9.3-12.1 9.3zm73.8 34.8c-2.2 0-4.5-.6-6.5-1.8-6-3.6-7.9-11.4-4.3-17.4L770.4 93c3.6-6 11.4-7.9 17.4-4.3 6 3.6 7.9 11.4 4.3 17.4l-22.5 37.3c-2.5 3.9-6.6 6.1-10.9 6.1zm63.2 52.6c-3.5 0-6.9-1.4-9.4-4.2-4.7-5.2-4.2-13.2 1-17.9l28.3-25.4c5.2-4.7 13.2-4.2 17.9 1 4.7 5.2 4.2 13.2-1 17.9l-28.3 25.4c-2.5 2.1-5.5 3.2-8.5 3.2zm43.1 70.3c-4.9 0-9.6-2.9-11.6-7.6-2.8-6.4.2-13.9 6.6-16.6l31-13.4c6.4-2.8 13.9.2 16.6 6.6 2.8 6.4-.2 13.9-6.6 16.6l-31 13.4c-1.6.6-3.3 1-5 1zm48.2 87h-29.9c-7 0-12.6-5.7-12.6-12.6 0-7 5.7-12.6 12.6-12.6h29.9c7 0 12.6 5.7 12.6 12.6 0 6.9-5.7 12.6-12.6 12.6zm-15.5 84c-1 0-2.1-.1-3.1-.4l-26.1-6.6c-6.8-1.7-10.9-8.6-9.1-15.4 1.7-6.8 8.6-10.9 15.4-9.1l26.1 6.6c6.8 1.7 10.9 8.6 9.1 15.4-1.5 5.7-6.7 9.5-12.3 9.5zm-35.4 70.1c-1.6 0-3.3-.3-4.9-1l-18.6-7.8c-6.4-2.7-9.5-10.1-6.8-16.5s10.1-9.5 16.5-6.8l18.6 7.8c6.4 2.7 9.5 10.1 6.8 16.5-1.9 4.9-6.6 7.8-11.6 7.8zm-38.9 56.8c-2.1 0-4.1-.5-6.1-1.6l-9.9-5.4c-6.1-3.4-8.4-11-5-17.2 3.4-6.1 11-8.4 17.2-5l9.9 5.4c6.1 3.4 8.4 11 5 17.2-2.3 4.2-6.7 6.6-11.1 6.6z"/>
</svg>